Coordinates
version=1
nRows=23
nColumns=38
inDegrees=no

Units are S.I. units (second, meters, Newtons, ...)
If the header above contains a line with 'inDegrees', this indicates whether rotational values are in degrees (yes) or radians (no).

endheader
time	pelvis_tilt	pelvis_list	pelvis_rotation	pelvis_tx	pelvis_ty	pelvis_tz	hip_flexion_r	hip_adduction_r	hip_rotation_r	knee_angle_r	ankle_angle_r	subtalar_angle_r	mtp_angle_r	hip_flexion_l	hip_adduction_l	hip_rotation_l	knee_angle_l	ankle_angle_l	subtalar_angle_l	mtp_angle_l	lumbar_extension	lumbar_bending	lumbar_rotation	arm_flex_r	arm_add_r	arm_rot_r	elbow_flex_r	pro_sup_r	wrist_flex_r	wrist_dev_r	arm_flex_l	arm_add_l	arm_rot_l	elbow_flex_l	pro_sup_l	wrist_flex_l	wrist_dev_l
1.06	-0.238763	1.53329	-1.27138	0.690773	0.372395	0.953008	0.512289	-0.122937	-0.259494	0.432298	0.105619	0	0	-0.209315	0.0536021	-0.0167893	0.149058	0.277061	0	0	-0.128994	-0.0878929	-0.150975	-0.0415351	-0.115958	0.00278139	0.251356	1.26242	0	0	-0.156576	-0.520586	0.581395	0.671775	0.66302	0	0
1.07	-0.309145	1.53234	-1.19828	0.689759	0.360101	0.950897	0.501365	-0.115117	-0.274553	0.374961	0.115442	0	0	-0.225795	0.0474825	-0.0160302	0.145822	0.286671	0	0	-0.128503	-0.0836338	-0.151568	-0.0427316	-0.11647	0.00020678	0.252157	1.26731	0	0	-0.150609	-0.519241	0.588065	0.670002	0.664358	0	0
1.08	-0.397448	1.53138	-1.10686	0.688668	0.34768	0.94868	0.490614	-0.105821	-0.287847	0.319871	0.124444	0	0	-0.240266	0.0402504	-0.0162299	0.14572	0.29706	0	0	-0.127266	-0.0785795	-0.152444	-0.043757	-0.116138	-0.0101624	0.251724	1.28106	0	0	-0.14439	-0.517924	0.596911	0.667529	0.665269	0	0
1.09	-0.502016	1.53042	-0.998485	0.687483	0.335147	0.946354	0.480521	-0.0953348	-0.298892	0.26803	0.131774	0	0	-0.251916	0.0319388	-0.0180648	0.149937	0.308784	0	0	-0.125058	-0.072993	-0.154229	-0.045484	-0.115776	-0.0192309	0.252063	1.29367	0	0	-0.138331	-0.517022	0.60819	0.664876	0.665726	0	0
1.1	-0.60723	1.52955	-0.888751	0.686241	0.322485	0.94393	0.471235	-0.0847577	-0.305678	0.220443	0.137072	0	0	-0.260853	0.0232529	-0.0213852	0.158397	0.321387	0	0	-0.121673	-0.0676286	-0.158151	-0.0535014	-0.121938	0.0386058	0.26673	1.22091	0	0	-0.134029	-0.516378	0.618862	0.66273	0.669385	0	0
1.11	-0.714134	1.52759	-0.776316	0.684935	0.309649	0.941606	0.45844	-0.0722318	-0.302689	0.170036	0.134933	0	0	-0.267645	0.0129909	-0.0276697	0.171828	0.33522	0	0	-0.119561	-0.0614182	-0.158642	-0.0433709	-0.107963	-0.110761	0.240417	1.40895	0	0	-0.123696	-0.517738	0.643872	0.659641	0.669407	0	0
1.12	-0.786329	1.52874	-0.69914	0.68371	0.296719	0.939102	0.45265	-0.065865	-0.301265	0.13677	0.137465	0	0	-0.272892	0.00692473	-0.0306419	0.184728	0.344867	0	0	-0.114889	-0.0589522	-0.162156	-0.0472172	-0.107791	-0.112073	0.244748	1.41194	0	0	-0.118735	-0.517506	0.656521	0.657417	0.673202	0	0
1.13	-0.841249	1.52996	-0.639208	0.682496	0.283651	0.936712	0.448446	-0.0613625	-0.298012	0.114299	0.139974	0	0	-0.277013	0.00126631	-0.0344633	0.201182	0.354666	0	0	-0.110818	-0.0571475	-0.165475	-0.0516759	-0.107721	-0.113954	0.250588	1.41392	0	0	-0.11333	-0.517357	0.670913	0.654757	0.678183	0	0
1.14	-0.861242	1.53202	-0.614756	0.681325	0.270454	0.934423	0.449719	-0.0611558	-0.298898	0.112092	0.146683	0	0	-0.281775	-0.00240079	-0.0357609	0.217558	0.361375	0	0	-0.107299	-0.0569192	-0.169867	-0.0623194	-0.113965	-0.0483898	0.269103	1.33155	0	0	-0.110688	-0.516455	0.67831	0.654232	0.681374	0	0
1.15	-0.878091	1.53378	-0.592942	0.68023	0.257076	0.932255	0.454519	-0.0629908	-0.302976	0.1249	0.152103	0	0	-0.284778	-0.00690914	-0.0374241	0.238374	0.368118	0	0	-0.104427	-0.056045	-0.173164	-0.0663118	-0.114046	-0.0537746	0.272708	1.33872	0	0	-0.106398	-0.515773	0.689921	0.653695	0.686561	0	0
1.16	-0.894491	1.53541	-0.570819	0.679318	0.243501	0.930173	0.462061	-0.0668395	-0.310367	0.150071	0.154201	0	0	-0.28654	-0.0118288	-0.0375315	0.261808	0.373585	0	0	-0.101501	-0.0544044	-0.177002	-0.0706382	-0.114917	-0.0599684	0.276686	1.34535	0	0	-0.102365	-0.514309	0.701174	0.6531	0.692654	0	0
1.17	-0.927005	1.53651	-0.531312	0.678598	0.229676	0.928192	0.469673	-0.0710259	-0.318687	0.181293	0.150752	0	0	-0.286605	-0.0179286	-0.0356979	0.288045	0.377367	0	0	-0.0979351	-0.0513925	-0.181955	-0.0754218	-0.116512	-0.0660967	0.280542	1.35172	0	0	-0.0991343	-0.511809	0.711145	0.652113	0.699342	0	0
1.18	-1.05017	1.53908	-0.399317	0.678099	0.215496	0.926031	0.481065	-0.076981	-0.329865	0.219868	0.14543	0	0	-0.279924	-0.0247164	-0.0326589	0.3209	0.380851	0	0	-0.0895185	-0.0481946	-0.18896	-0.0821	-0.118981	-0.0680185	0.285146	1.35374	0	0	-0.0985917	-0.507391	0.714893	0.649083	0.72405	0	0
1.19	-1.07662	1.53862	-0.363502	0.677681	0.200825	0.924428	0.481158	-0.0790774	-0.332851	0.247817	0.133292	0	0	-0.279018	-0.0324946	-0.026793	0.350651	0.37794	0	0	-0.0851418	-0.0433826	-0.196079	-0.0877786	-0.121398	-0.0736148	0.286713	1.35971	0	0	-0.0988776	-0.50316	0.718841	0.649117	0.726514	0	0
1.2	-1.15364	1.53896	-0.275624	0.677362	0.185878	0.92278	0.481485	-0.0822835	-0.340182	0.273692	0.120521	0	0	-0.272938	-0.0407061	-0.0206743	0.386095	0.373135	0	0	-0.077875	-0.0387021	-0.204087	-0.0949732	-0.124042	-0.0793375	0.288788	1.36506	0	0	-0.100225	-0.498744	0.722746	0.648485	0.729475	0	0
1.21	-1.26299	1.53844	-0.155849	0.676885	0.170873	0.921306	0.481867	-0.0848155	-0.349544	0.294115	0.0960206	0	0	-0.26294	-0.0498897	-0.0152838	0.42614	0.365083	0	0	-0.0694608	-0.0330914	-0.210873	-0.102626	-0.126638	-0.0860366	0.291128	1.37044	0	0	-0.101481	-0.49368	0.725517	0.646861	0.732646	0	0
1.22	-1.41723	1.53532	0.00585935	0.675988	0.156224	0.920197	0.486068	-0.0851788	-0.358099	0.314339	0.057255	0	0	-0.246963	-0.0608176	-0.0120677	0.472621	0.352377	0	0	-0.0600369	-0.0250631	-0.214144	-0.109268	-0.128946	-0.0938925	0.293751	1.37695	0	0	-0.101674	-0.487025	0.725481	0.643183	0.736169	0	0
1.23	-1.56141	1.52917	0.151666	0.674542	0.142091	0.919702	0.49736	-0.0836705	-0.362775	0.347193	0.0270004	0	0	-0.225898	-0.0724459	-0.0128949	0.524601	0.331608	0	0	-0.0510952	-0.01447	-0.211863	-0.113842	-0.130919	-0.102534	0.297296	1.38449	0	0	-0.101481	-0.47849	0.720066	0.638774	0.738969	0	0
1.24	-1.67663	1.5213	0.264225	0.672826	0.128264	0.91978	0.514815	-0.0819195	-0.363329	0.394426	0.0197302	0	0	-0.19986	-0.0838266	-0.0167132	0.582039	0.301356	0	0	-0.042398	-0.00254155	-0.20689	-0.116648	-0.132585	-0.109954	0.301497	1.39142	0	0	-0.103317	-0.46898	0.709283	0.636763	0.737538	0	0
1.25	-1.71465	1.51433	0.298045	0.671203	0.114463	0.920458	0.529199	-0.0798729	-0.35918	0.443253	0.0229519	0	0	-0.173822	-0.0938365	-0.0211176	0.642155	0.260932	0	0	-0.0370031	0.00912757	-0.203885	-0.123352	-0.140391	-0.0569445	0.318079	1.31936	0	0	-0.110209	-0.459964	0.691891	0.640824	0.730405	0	0
1.26	-1.69346	1.50932	0.273702	0.669748	0.100738	0.92155	0.535177	-0.0771954	-0.35391	0.482594	0.0216067	0	0	-0.14824	-0.102363	-0.0226485	0.704676	0.212224	0	0	-0.0365145	0.0197492	-0.20181	-0.118983	-0.137039	-0.0943218	0.312656	1.37171	0	0	-0.116485	-0.456975	0.691262	0.655449	0.686398	0	0
1.27	-1.66127	1.50453	0.239884	0.668422	0.0872481	0.92263	0.534643	-0.0728603	-0.35127	0.509945	0.0130045	0	0	-0.119808	-0.110954	-0.0214688	0.770585	0.159374	0	0	-0.0373594	0.0303377	-0.204149	-0.117727	-0.138933	-0.082145	0.316666	1.35914	0	0	-0.127572	-0.450437	0.669192	0.66648	0.695515	0	0
1.28	-1.63847	1.49964	0.216408	0.666953	0.0741418	0.923504	0.529699	-0.0669557	-0.353296	0.527513	0.00545457	0	0	-0.0876073	-0.119874	-0.0189535	0.838591	0.105353	0	0	-0.0382843	0.0401726	-0.206475	-0.114582	-0.138307	-0.0859305	0.316373	1.36833	0	0	-0.135496	-0.44869	0.664084	0.682182	0.675206	0	0
